# Wavefront Obj file
# 
# verts: 106 uv-s: 376
mtllib wallSimple.mtl

g Box001
#pivot 0.000000 0.000000 0.000000

v -20.000000 0.000000 0.000000
v -9.770700 0.000000 0.000000
v -9.770700 -16.711500 0.000000
v -13.059200 -20.000000 0.000000
v -20.000000 -20.000000 0.000000
v -9.770700 -20.000000 40.000000
v -9.770700 0.000000 40.000000
v -20.000000 0.000000 40.000000
v -20.000000 -20.000000 40.000000
v -9.770700 -20.000000 26.414700
v -20.000000 -20.000000 33.929501
v -9.770700 -20.000000 33.929501
v 20.000000 0.000000 0.000000
v 20.000000 0.000000 33.929501
v 20.000000 -20.000000 33.929501
v 20.000000 -20.000000 0.000000
v 11.280700 -20.000000 40.000000
v 11.280700 0.000000 40.000000
v 0.848100 0.000000 40.000000
v 0.848100 -20.000000 40.000000
v 11.280700 -20.000000 26.414700
v 11.280700 -20.000000 33.929501
v 0.848100 -20.000000 33.929501
v 0.848100 -20.000000 26.414700
v 20.000000 -20.000000 40.000000
v 20.000000 0.000000 40.000000
v 14.569200 -20.000000 0.000000
v -20.000000 0.000000 33.929501
v -9.729400 -21.857401 40.773701
v -9.729400 -24.434601 38.959999
v -16.094299 -21.857401 40.773701
v -16.094299 -24.434601 38.959999
v 9.821100 -21.857401 40.773701
v 9.821100 -24.434601 38.959999
v 2.307700 -21.857401 40.773701
v 2.307700 -24.434601 38.959999
v -0.611500 -21.857401 40.773701
v -0.611500 -24.434601 38.959999
v -8.311100 -21.857401 40.773701
v -8.311100 -24.434601 38.959999
v 16.191999 -21.857401 40.773701
v 16.191999 -24.434601 38.959999
v 11.141800 -21.857401 40.773701
v 11.141800 -24.434601 38.959999
v -8.395000 -24.302099 45.232601
v 4.508100 -24.302099 45.232601
v -2.905000 -24.302099 45.232601
v 9.150000 -24.302099 45.232601
v 0.848100 -16.711500 0.000000
v 4.136600 -20.000000 0.000000
v 0.848100 -17.353600 0.000000
v -2.440400 -20.000000 0.000000
v -9.770700 -17.353600 0.000000
v 11.280700 -16.711500 0.000000
v 11.280700 -17.353600 0.000000
v 7.992100 -20.000000 0.000000
v -6.482200 -20.000000 0.000000
v 0.848100 0.000000 0.000000
v 11.280700 0.000000 0.000000
v -9.770700 16.711500 0.000000
v -13.059200 20.000000 0.000000
v -20.000000 20.000000 0.000000
v -9.770700 20.000000 40.000000
v -20.000000 20.000000 40.000000
v -20.000000 20.000000 33.929501
v -9.770700 20.000000 33.929501
v -9.770700 20.000000 26.414700
v 20.000000 20.000000 0.000000
v 20.000000 20.000000 33.929501
v 11.280700 20.000000 40.000000
v 0.848100 20.000000 40.000000
v 11.280700 20.000000 26.414700
v 0.848100 20.000000 26.414700
v 0.848100 20.000000 33.929501
v 11.280700 20.000000 33.929501
v 20.000000 20.000000 40.000000
v 14.569200 20.000000 0.000000
v -9.729400 24.434601 38.959999
v -9.729400 21.857401 40.773701
v -16.094299 21.857401 40.773701
v -16.094299 24.434601 38.959999
v 9.821100 24.434601 38.959999
v 9.821100 21.857401 40.773701
v 2.307700 21.857401 40.773701
v 2.307700 24.434601 38.959999
v -0.611500 24.434601 38.959999
v -0.611500 21.857401 40.773701
v -8.311100 21.857401 40.773701
v -8.311100 24.434601 38.959999
v 16.191999 24.434601 38.959999
v 16.191999 21.857401 40.773701
v 11.141800 21.857401 40.773701
v 11.141800 24.434601 38.959999
v -8.395000 24.302099 45.232601
v 4.508100 24.302099 45.232601
v -2.905000 24.302099 45.232601
v 9.150000 24.302099 45.232601
v 0.848100 16.711500 0.000000
v -2.440400 20.000000 0.000000
v 0.848100 17.353600 0.000000
v 4.136600 20.000000 0.000000
v -9.770700 17.353600 0.000000
v 11.280700 16.711500 0.000000
v 7.992100 20.000000 0.000000
v 11.280700 17.353600 0.000000
v -6.482200 20.000000 0.000000
# 106 positions

vt 0.000000 0.139300
vt 0.071200 0.139300
vt 0.071200 0.255600
vt 0.048300 0.278500
vt 0.000000 0.278500
vt 0.071200 0.294400
vt 0.071200 0.433700
vt 0.000000 0.433700
vt 0.000000 0.294400
vt 0.588900 0.000000
vt 0.637200 0.000000
vt 0.660100 0.183900
vt 0.588900 0.236200
vt 0.660100 0.236200
vt 0.433700 0.000000
vt 0.433700 0.236200
vt 0.294400 0.236200
vt 0.294400 0.000000
vt 0.217800 0.294400
vt 0.217800 0.433700
vt 0.145200 0.433700
vt 0.145200 0.294400
vt 0.806700 0.183900
vt 0.806700 0.236200
vt 0.734000 0.236200
vt 0.734000 0.183900
vt 0.278500 0.294400
vt 0.278500 0.433700
vt 0.867400 0.000000
vt 0.867400 0.236200
vt 0.829600 0.000000
vt 0.278500 0.867400
vt 0.139300 0.867400
vt 0.139300 0.825100
vt 0.278500 0.825100
vt 0.845100 0.720900
vt 0.845100 0.763200
vt 0.832100 0.768500
vt 0.814200 0.755900
vt 0.888300 0.797900
vt 0.814200 0.797900
vt 0.842500 0.784500
vt 0.888600 0.784500
vt 0.830000 0.522100
vt 0.830000 0.479200
vt 0.872600 0.514300
vt 0.859200 0.530000
vt 0.565500 0.546600
vt 0.636700 0.546600
vt 0.637000 0.593300
vt 0.592700 0.593300
vt 0.700400 0.791000
vt 0.700400 0.835600
vt 0.686800 0.841200
vt 0.667800 0.827900
vt 0.884900 0.685300
vt 0.809300 0.685300
vt 0.819900 0.671800
vt 0.874300 0.671800
vt 0.667800 0.901400
vt 0.667800 0.857200
vt 0.700200 0.893800
vt 0.681400 0.907100
vt 0.089900 0.883300
vt 0.162500 0.883300
vt 0.152300 0.930000
vt 0.100000 0.930000
vt 0.572900 0.899000
vt 0.572900 0.941900
vt 0.557000 0.947900
vt 0.539700 0.934500
vt 0.665800 0.265600
vt 0.588900 0.265600
vt 0.599400 0.252200
vt 0.655200 0.252200
vt 0.717500 0.831300
vt 0.717500 0.787000
vt 0.749800 0.823700
vt 0.731000 0.836900
vt 0.000000 0.883300
vt 0.073900 0.883300
vt 0.063800 0.930000
vt 0.010200 0.930000
vt 0.582500 0.731400
vt 0.582500 0.774800
vt 0.553500 0.782700
vt 0.539700 0.767000
vt 0.923400 0.590000
vt 0.860200 0.590000
vt 0.859200 0.576500
vt 0.895800 0.576500
vt 0.765900 0.829000
vt 0.765900 0.786700
vt 0.796800 0.821800
vt 0.778900 0.834400
vt 0.859600 0.294400
vt 0.920300 0.294400
vt 0.893800 0.341100
vt 0.858600 0.341100
vt 0.849800 0.891500
vt 0.868000 0.904300
vt 0.850700 0.935900
vt 0.710800 0.609200
vt 0.758100 0.609200
vt 0.700900 0.642400
vt 0.178400 0.900600
vt 0.191900 0.883300
vt 0.226600 0.943100
vt 0.847700 0.357000
vt 0.892000 0.357000
vt 0.901300 0.400700
vt 0.686200 0.720900
vt 0.701600 0.736600
vt 0.667800 0.775100
vt 0.774000 0.609200
vt 0.829900 0.609200
vt 0.813500 0.642400
vt 0.917200 0.370400
vt 0.934600 0.357000
vt 0.937500 0.403300
vt 0.632600 0.609200
vt 0.684900 0.609200
vt 0.647900 0.652900
vt 0.886400 0.200400
vt 0.903800 0.213800
vt 0.883300 0.246800
vt 0.539700 0.798700
vt 0.593300 0.798700
vt 0.555700 0.834100
vt 0.475700 0.904900
vt 0.490900 0.889200
vt 0.509900 0.943600
vt 0.563100 0.609200
vt 0.616700 0.609200
vt 0.600700 0.652900
vt 0.800000 0.419700
vt 0.814000 0.436500
vt 0.770100 0.478100
vt 0.539700 0.850000
vt 0.577300 0.850000
vt 0.592100 0.883100
vt 0.928600 0.075400
vt 0.947200 0.062300
vt 0.946300 0.107600
vt 0.912100 0.419700
vt 0.947200 0.419700
vt 0.898200 0.463300
vt 0.923700 0.671800
vt 0.946600 0.694700
vt 0.923700 0.676300
vt 0.900800 0.694700
vt 0.294400 0.747000
vt 0.323800 0.747000
vt 0.312300 0.931500
vt 0.898800 0.813800
vt 0.921700 0.836700
vt 0.898800 0.818300
vt 0.875900 0.836700
vt 0.837100 0.857100
vt 0.814200 0.875500
vt 0.837100 0.852600
vt 0.860000 0.875500
vt 0.369100 0.546600
vt 0.351300 0.731100
vt 0.339700 0.546600
vt 0.754200 0.294400
vt 0.736300 0.478900
vt 0.724800 0.294400
vt 0.756900 0.000000
vt 0.783800 0.000000
vt 0.683000 0.000000
vt 0.711100 0.000000
vt 0.679500 0.294400
vt 0.708900 0.294400
vt 0.691000 0.478900
vt 0.402900 0.731100
vt 0.385000 0.546600
vt 0.414400 0.546600
vt 0.448200 0.731100
vt 0.430400 0.546600
vt 0.459700 0.546600
vt 0.278500 0.588900
vt 0.139300 0.588900
vt 0.217800 0.255600
vt 0.194900 0.278500
vt 0.168100 0.278500
vt 0.145200 0.255600
vt 0.145200 0.139300
vt 0.217800 0.139300
vt 0.122300 0.278500
vt 0.094100 0.278500
vt 0.278500 0.278500
vt 0.240700 0.278500
vt 0.278500 0.139300
vt 0.294400 0.278500
vt 0.433700 0.278500
vt 0.071200 0.022900
vt 0.048300 0.000000
vt 0.000000 0.000000
vt 0.071200 0.573000
vt 0.000000 0.573000
vt 0.573000 0.530700
vt 0.501700 0.530700
vt 0.501700 0.478400
vt 0.573000 0.294400
vt 0.524600 0.294400
vt 0.573000 0.000000
vt 0.573000 0.236200
vt 0.217800 0.573000
vt 0.145200 0.573000
vt 0.355100 0.478400
vt 0.427800 0.478400
vt 0.427800 0.530700
vt 0.355100 0.530700
vt 0.278500 0.573000
vt 0.294400 0.530700
vt 0.294400 0.294400
vt 0.332200 0.294400
vt 0.000000 0.867400
vt 0.000000 0.825100
vt 0.765900 0.850300
vt 0.796800 0.885300
vt 0.778900 0.898000
vt 0.765900 0.892600
vt 0.935100 0.720900
vt 0.935400 0.734300
vt 0.889300 0.734300
vt 0.861000 0.720900
vt 0.651900 0.714600
vt 0.622700 0.722500
vt 0.609200 0.706900
vt 0.651900 0.671800
vt 0.547200 0.609200
vt 0.520000 0.655900
vt 0.475700 0.655900
vt 0.475900 0.609200
vt 0.609200 0.808600
vt 0.641800 0.845500
vt 0.622900 0.858800
vt 0.609200 0.853100
vt 0.921400 0.609200
vt 0.910800 0.622700
vt 0.856400 0.622700
vt 0.845800 0.609200
vt 0.641600 0.919000
vt 0.628000 0.924600
vt 0.609200 0.911400
vt 0.641600 0.874700
vt 0.842700 0.294400
vt 0.832600 0.341100
vt 0.780300 0.341100
vt 0.770100 0.294400
vt 0.717500 0.720900
vt 0.750000 0.757800
vt 0.731100 0.771100
vt 0.717500 0.765400
vt 0.933100 0.546600
vt 0.923000 0.560600
vt 0.869400 0.560600
vt 0.859200 0.546600
vt 0.798300 0.765200
vt 0.784700 0.770800
vt 0.765900 0.757600
vt 0.798300 0.720900
vt 0.549600 0.546600
vt 0.539400 0.593300
vt 0.485800 0.593300
vt 0.475700 0.546600
vt 0.475700 0.821900
vt 0.518400 0.857500
vt 0.504600 0.873300
vt 0.475700 0.865300
vt 0.910000 0.638600
vt 0.882400 0.652000
vt 0.845800 0.652000
vt 0.846800 0.638600
vt 0.748400 0.895100
vt 0.735400 0.900500
vt 0.717500 0.887900
vt 0.748400 0.852800
vt 0.830800 0.357000
vt 0.831800 0.403700
vt 0.796600 0.403700
vt 0.770100 0.357000
vt 0.448600 0.809100
vt 0.447700 0.853500
vt 0.430400 0.822000
vt 0.715200 0.671800
vt 0.725100 0.705000
vt 0.667800 0.671800
vt 0.523800 0.689100
vt 0.475700 0.731700
vt 0.510300 0.671800
vt 0.593300 0.671800
vt 0.539700 0.715500
vt 0.549000 0.671800
vt 0.624600 0.738500
vt 0.643000 0.792700
vt 0.609200 0.754100
vt 0.843300 0.546600
vt 0.803800 0.579800
vt 0.787400 0.546600
vt 0.450600 0.760400
vt 0.430400 0.793200
vt 0.433200 0.747000
vt 0.882300 0.419700
vt 0.867000 0.463300
vt 0.830000 0.419700
vt 0.946000 0.000000
vt 0.949100 0.046400
vt 0.928600 0.013400
vt 0.942200 0.479200
vt 0.926200 0.514700
vt 0.888600 0.479200
vt 0.276700 0.899000
vt 0.242500 0.937800
vt 0.261400 0.883300
vt 0.706600 0.546600
vt 0.668900 0.590300
vt 0.652900 0.546600
vt 0.489700 0.747600
vt 0.519600 0.806000
vt 0.475700 0.764500
vt 0.793400 0.671800
vt 0.741000 0.705000
vt 0.755800 0.671800
vt 0.833800 0.904700
vt 0.814200 0.937200
vt 0.816300 0.891500
vt 0.757600 0.546600
vt 0.771500 0.590300
vt 0.722500 0.546600
vt 0.704600 0.275100
vt 0.681700 0.252200
vt 0.704600 0.270600
vt 0.727500 0.252200
vt 0.414400 0.747000
vt 0.396600 0.931500
vt 0.385000 0.747000
vt 0.766300 0.275100
vt 0.743400 0.252200
vt 0.766300 0.270600
vt 0.789200 0.252200
vt 0.837100 0.832300
vt 0.860000 0.813800
vt 0.837100 0.836700
vt 0.814200 0.813800
vt 0.339700 0.747000
vt 0.369100 0.747000
vt 0.357600 0.931500
vt 0.883300 0.000000
vt 0.912700 0.000000
vt 0.901100 0.184500
vt 0.404900 0.294400
vt 0.378000 0.294400
vt 0.478800 0.294400
vt 0.450700 0.294400
vt 0.618300 0.294400
vt 0.606700 0.478900
vt 0.588900 0.294400
vt 0.645700 0.478900
vt 0.634200 0.294400
vt 0.663600 0.294400
vt 0.306000 0.731100
vt 0.294400 0.546600
vt 0.323800 0.546600
vt 0.000000 0.588900
vt 0.168100 0.000000
vt 0.194900 0.000000
vt 0.217800 0.022900
vt 0.145200 0.022900
vt 0.094100 0.000000
vt 0.122300 0.000000
vt 0.240700 0.000000
vt 0.278500 0.000000
vt 0.573000 0.278500
# 376 texture coordinates

vn 0.000000 0.000000 -1.000000
vn 0.000000 0.000000 1.000000
vn 0.000000 -1.000000 0.000000
vn 1.000000 0.000000 0.000000
vn -1.000000 0.000000 0.000000
vn 0.999944 0.010086 -0.003297
vn 0.000000 0.384524 0.923115
vn -0.705862 -0.673291 0.220086
vn 0.000000 -0.750139 -0.661280
vn 0.936321 -0.333766 0.109102
vn -0.936321 -0.333766 0.109102
vn 0.714777 -0.664739 0.217291
vn -0.999364 0.033901 -0.011082
vn 0.966860 0.146935 -0.208788
vn 0.000000 0.876854 0.480756
vn -0.548713 -0.481139 0.683681
vn 0.000000 -0.999777 0.021119
vn 0.689184 -0.417013 0.592559
vn -0.916853 -0.229761 0.326481
vn 0.910604 -0.237850 0.337976
vn -0.682875 -0.420436 0.597424
vn 0.583025 -0.467582 0.664416
vn -0.930342 0.211039 -0.299878
vn 0.625041 -0.776704 -0.077815
vn -0.625045 -0.776700 -0.077815
vn 0.000000 1.000000 0.000000
vn 0.999944 -0.010086 -0.003297
vn 0.000000 -0.384524 0.923115
vn -0.705862 0.673291 0.220086
vn 0.000000 0.750139 -0.661280
vn 0.936321 0.333766 0.109102
vn -0.936321 0.333766 0.109102
vn 0.714777 0.664739 0.217291
vn -0.999364 -0.033901 -0.011082
vn 0.966860 -0.146935 -0.208788
vn 0.000000 -0.876854 0.480756
vn -0.548713 0.481139 0.683681
vn 0.000000 0.999777 0.021119
vn 0.689184 0.417013 0.592559
vn -0.916853 0.229761 0.326481
vn 0.910604 0.237850 0.337976
vn -0.682875 0.420436 0.597424
vn 0.583025 0.467582 0.664416
vn -0.930342 -0.211039 -0.299878
vn 0.625041 0.776704 -0.077815
vn -0.625045 0.776700 -0.077815
# 46 normals

usemtl default
f 1/1/1 2/2/1 3/3/1 4/4/1
f 5/5/1 1/1/1 4/4/1
f 6/6/2 7/7/2 8/8/2 9/9/2
f 5/10/3 4/11/3 10/12/3 11/13/3
f 10/12/3 12/14/3 11/13/3
f 13/15/4 14/16/4 15/17/4 16/18/4
f 17/19/2 18/20/2 19/21/2 20/22/2
f 21/23/3 22/24/3 23/25/3 24/26/3
f 20/22/2 19/21/2 7/7/2 6/6/2
f 24/26/3 23/25/3 12/14/3 10/12/3
f 25/27/2 26/28/2 18/20/2 17/19/2
f 16/29/3 15/30/3 22/24/3 27/31/3
f 21/23/3 27/31/3 22/24/3
f 9/32/5 8/33/5 28/34/5 11/35/5
f 12/36/6 6/37/6 29/38/6 30/39/6
f 6/40/7 9/41/7 31/42/7 29/43/7
f 9/44/8 11/45/8 32/46/8 31/47/8
f 11/48/9 12/49/9 30/50/9 32/51/9
f 22/52/10 17/53/10 33/54/10 34/55/10
f 17/56/7 20/57/7 35/58/7 33/59/7
f 20/60/11 23/61/11 36/62/11 35/63/11
f 23/64/9 22/65/9 34/66/9 36/67/9
f 23/68/10 20/69/10 37/70/10 38/71/10
f 20/72/7 6/73/7 39/74/7 37/75/7
f 6/76/11 12/77/11 40/78/11 39/79/11
f 12/80/9 23/81/9 38/82/9 40/83/9
f 15/84/12 25/85/12 41/86/12 42/87/12
f 25/88/7 17/89/7 43/90/7 41/91/7
f 17/92/13 22/93/13 44/94/13 43/95/13
f 22/96/9 15/97/9 42/98/9 44/99/9
f 30/100/14 29/101/14 45/102/14
f 29/103/15 31/104/15 45/105/15
f 31/106/16 32/107/16 45/108/16
f 32/109/17 30/110/17 45/111/17
f 34/112/18 33/113/18 46/114/18
f 33/115/15 35/116/15 46/117/15
f 35/118/19 36/119/19 46/120/19
f 36/121/17 34/122/17 46/123/17
f 38/124/20 37/125/20 47/126/20
f 37/127/15 39/128/15 47/129/15
f 39/130/21 40/131/21 47/132/21
f 40/133/17 38/134/17 47/135/17
f 42/136/22 41/137/22 48/138/22
f 41/139/15 43/140/15 48/141/15
f 43/142/23 44/143/23 48/144/23
f 44/145/17 42/146/17 48/147/17
f 49/148/1 50/149/1 51/150/1 52/151/1
f 4/152/24 53/153/24 10/154/24
f 54/155/1 27/156/1 55/157/1 56/158/1
f 53/159/1 4/160/1 3/161/1 57/162/1
f 50/163/25 24/164/25 51/165/25
f 27/166/25 21/167/25 55/168/25
f 50/169/3 56/170/3 21/23/3 24/26/3
f 57/171/3 52/172/3 24/26/3 10/12/3
f 53/173/25 57/174/25 10/175/25
f 24/176/24 52/177/24 51/178/24
f 21/179/24 56/180/24 55/181/24
f 5/182/5 11/35/5 28/34/5 1/183/5
f 54/184/1 56/185/1 50/186/1 49/187/1
f 54/184/1 49/187/1 58/188/1 59/189/1
f 49/187/1 52/190/1 57/191/1 3/3/1
f 49/187/1 3/3/1 2/2/1 58/188/1
f 16/192/1 27/193/1 54/184/1 59/189/1
f 13/194/1 16/192/1 59/189/1
f 25/195/4 15/17/4 14/16/4 26/196/4
f 60/197/1 2/2/1 1/1/1 61/198/1
f 62/199/1 61/198/1 1/1/1
f 63/200/2 64/201/2 8/8/2 7/7/2
f 65/202/26 66/203/26 67/204/26 62/205/26
f 62/205/26 67/204/26 61/206/26
f 13/15/4 68/207/4 69/208/4 14/16/4
f 70/209/2 71/210/2 19/21/2 18/20/2
f 72/211/26 73/212/26 74/213/26 75/214/26
f 71/210/2 63/200/2 7/7/2 19/21/2
f 73/212/26 67/204/26 66/203/26 74/213/26
f 76/215/2 70/209/2 18/20/2 26/28/2
f 75/214/26 69/216/26 68/217/26 77/218/26
f 72/211/26 75/214/26 77/218/26
f 64/219/5 65/220/5 28/34/5 8/33/5
f 66/221/27 78/222/27 79/223/27 63/224/27
f 63/225/28 79/226/28 80/227/28 64/228/28
f 64/229/29 80/230/29 81/231/29 65/232/29
f 65/233/30 81/234/30 78/235/30 66/236/30
f 75/237/31 82/238/31 83/239/31 70/240/31
f 70/241/28 83/242/28 84/243/28 71/244/28
f 71/245/32 84/246/32 85/247/32 74/248/32
f 74/249/30 85/250/30 82/251/30 75/252/30
f 74/253/31 86/254/31 87/255/31 71/256/31
f 71/257/28 87/258/28 88/259/28 63/260/28
f 63/261/32 88/262/32 89/263/32 66/264/32
f 66/265/30 89/266/30 86/267/30 74/268/30
f 69/269/33 90/270/33 91/271/33 76/272/33
f 76/273/28 91/274/28 92/275/28 70/276/28
f 70/277/34 92/278/34 93/279/34 75/280/34
f 75/281/30 93/282/30 90/283/30 69/284/30
f 78/285/35 94/286/35 79/287/35
f 79/288/36 94/289/36 80/290/36
f 80/291/37 94/292/37 81/293/37
f 81/294/38 94/295/38 78/296/38
f 82/297/39 95/298/39 83/299/39
f 83/300/36 95/301/36 84/302/36
f 84/303/40 95/304/40 85/305/40
f 85/306/38 95/307/38 82/308/38
f 86/309/41 96/310/41 87/311/41
f 87/312/36 96/313/36 88/314/36
f 88/315/42 96/316/42 89/317/42
f 89/318/38 96/319/38 86/320/38
f 90/321/43 97/322/43 91/323/43
f 91/324/36 97/325/36 92/326/36
f 92/327/44 97/328/44 93/329/44
f 93/330/38 97/331/38 90/332/38
f 98/333/1 99/334/1 100/335/1 101/336/1
f 61/337/45 67/338/45 102/339/45
f 103/340/1 104/341/1 105/342/1 77/343/1
f 102/344/1 106/345/1 60/346/1 61/347/1
f 101/348/46 100/349/46 73/350/46
f 77/351/46 105/352/46 72/353/46
f 101/354/26 73/212/26 72/211/26 104/355/26
f 106/356/26 67/204/26 73/212/26 99/357/26
f 102/358/46 67/359/46 106/360/46
f 73/361/45 100/362/45 99/363/45
f 72/364/45 105/365/45 104/366/45
f 62/367/5 1/183/5 28/34/5 65/220/5
f 101/368/1 104/369/1 103/370/1 98/371/1
f 58/188/1 98/371/1 103/370/1 59/189/1
f 106/372/1 99/373/1 98/371/1 60/197/1
f 2/2/1 60/197/1 98/371/1 58/188/1
f 103/370/1 77/374/1 68/375/1 59/189/1
f 13/194/1 59/189/1 68/375/1
f 76/376/4 26/196/4 14/16/4 69/208/4

# 130 faces
